<?xml version="1.0" encoding="UTF-8"?>
<svg id="Capa_2" data-name="Capa 2" xmlns="http://www.w3.org/2000/svg" xmlns:xlink="http://www.w3.org/1999/xlink" viewBox="0 0 2323.19 162.96">
  <defs>
    <style>
      .cls-1 {
        fill: #3d3dfc;
      }

      .cls-2 {
        fill: #a2d600;
      }
    </style>
    <symbol id="Fondo_SieteV" data-name="Fondo SieteV" viewBox="0 0 2323.19 162.96">
      <g>
        <polygon class="cls-2" points="2157.25 155.89 2157.25 162.96 2171.95 162.96 2175.48 155.89 2157.25 155.89"/>
        <polygon class="cls-2" points="2009.54 121 1991.3 121 1991.3 157.48 2009.54 121"/>
        <polygon class="cls-2" points="2070.61 162.96 2074.27 162.96 2074.27 155.64 2070.61 162.96"/>
        <polygon class="cls-2" points="2074.27 29.15 2074.27 0 2070.61 0 2056.04 29.15 2074.27 29.15"/>
        <polygon class="cls-2" points="1908.33 22.08 1908.33 58.55 1926.57 22.08 1908.33 22.08"/>
        <polygon class="cls-2" points="1991.3 93.19 1991.3 56.71 1973.06 93.19 1991.3 93.19"/>
        <polygon class="cls-2" points="2171.95 0 2157.25 0 2157.25 29.4 2171.95 0"/>
        <polygon class="cls-2" points="2240.22 64.04 2240.22 27.56 2221.98 64.04 2240.22 64.04"/>
        <polygon class="cls-2" points="2074.27 56.97 2074.27 93.44 2092.51 56.97 2074.27 56.97"/>
        <polygon class="cls-2" points="2157.25 128.07 2157.25 91.6 2139.01 128.07 2157.25 128.07"/>
        <polygon class="cls-2" points="2240.22 91.86 2240.22 128.33 2258.46 91.86 2240.22 91.86"/>
        <polygon class="cls-2" points="2304.95 162.96 2323.19 162.96 2323.19 126.49 2304.95 162.96"/>
        <polygon class="cls-2" points="1825.36 86.12 1825.36 122.59 1843.6 86.12 1825.36 86.12"/>
        <polygon class="cls-2" points="1908.33 157.22 1908.33 120.75 1890.09 157.22 1908.33 157.22"/>
        <polygon class="cls-2" points="1742.39 150.15 1742.39 162.96 1754.22 162.96 1760.63 150.15 1742.39 150.15"/>
        <polygon class="cls-2" points="1659.42 51.23 1659.42 87.7 1677.66 51.23 1659.42 51.23"/>
        <polygon class="cls-2" points="1742.39 122.33 1742.39 85.86 1724.15 122.33 1742.39 122.33"/>
        <polygon class="cls-2" points="1754.22 0 1742.39 0 1742.39 23.66 1754.22 0"/>
        <polygon class="cls-2" points="1825.36 58.3 1825.36 21.82 1807.12 58.3 1825.36 58.3"/>
        <polygon class="cls-2" points="580.8 68.89 580.8 105.37 599.04 68.89 580.8 68.89"/>
        <polygon class="cls-2" points="663.77 140 663.77 103.53 645.53 140 663.77 140"/>
        <polygon class="cls-2" points="501.05 0 497.83 0 497.83 6.44 501.05 0"/>
        <polygon class="cls-2" points="580.8 41.08 580.8 4.6 562.56 41.08 580.8 41.08"/>
        <polygon class="cls-2" points="497.83 132.93 497.83 162.96 501.05 162.96 516.06 132.93 497.83 132.93"/>
        <polygon class="cls-2" points="414.85 34.01 414.85 70.48 433.09 34.01 414.85 34.01"/>
        <polygon class="cls-2" points="497.83 105.11 497.83 68.64 479.59 105.11 497.83 105.11"/>
        <polygon class="cls-2" points="414.85 6.19 414.85 0 399.71 0 396.62 6.19 414.85 6.19"/>
        <polygon class="cls-2" points="331.88 98.04 331.88 134.52 350.12 98.04 331.88 98.04"/>
        <polygon class="cls-2" points="399.71 162.96 414.85 162.96 414.85 132.68 399.71 162.96"/>
        <polygon class="cls-2" points="829.71 11.93 829.71 0 817.44 0 811.47 11.93 829.71 11.93"/>
        <polygon class="cls-2" points="266.71 0 248.91 0 248.91 35.59 266.71 0"/>
        <polygon class="cls-2" points="331.88 70.22 331.88 33.75 313.64 70.22 331.88 70.22"/>
        <polygon class="cls-2" points="165.94 63.15 165.94 99.63 184.18 63.15 165.94 63.15"/>
        <polygon class="cls-2" points="248.91 134.26 248.91 97.79 230.67 134.26 248.91 134.26"/>
        <polygon class="cls-2" points="746.74 103.78 746.74 140.26 764.98 103.78 746.74 103.78"/>
        <polygon class="cls-2" points="817.44 162.96 829.71 162.96 829.71 138.42 817.44 162.96"/>
        <polygon class="cls-2" points="663.77 4.86 663.77 41.33 682.01 4.86 663.77 4.86"/>
        <polygon class="cls-2" points="746.74 75.96 746.74 39.49 728.5 75.96 746.74 75.96"/>
        <polygon class="cls-2" points="248.91 162.08 248.91 162.96 266.71 162.96 267.15 162.08 248.91 162.08"/>
        <polygon class="cls-2" points="83.32 0 82.97 0 82.97 .7 83.32 0"/>
        <polygon class="cls-2" points="165.94 35.33 165.94 0 165.37 0 147.7 35.33 165.94 35.33"/>
        <polygon class="cls-2" points="0 28.27 0 64.74 18.24 28.27 0 28.27"/>
        <polygon class="cls-2" points="82.97 99.37 82.97 62.9 64.73 99.37 82.97 99.37"/>
        <polygon class="cls-2" points="82.97 127.19 82.97 162.96 83.32 162.96 101.21 127.19 82.97 127.19"/>
        <polygon class="cls-2" points="165.37 162.96 165.94 162.96 165.94 161.83 165.37 162.96"/>
        <polygon class="cls-2" points="1327.54 144.41 1327.54 162.96 1336.5 162.96 1345.77 144.41 1327.54 144.41"/>
        <polygon class="cls-2" points="1161.59 109.52 1161.59 146 1179.83 109.52 1161.59 109.52"/>
        <polygon class="cls-2" points="1235.16 162.96 1244.56 162.96 1244.56 144.16 1235.16 162.96"/>
        <polygon class="cls-2" points="1659.42 23.41 1659.42 0 1652.89 0 1641.18 23.41 1659.42 23.41"/>
        <polygon class="cls-2" points="1594.69 115.26 1576.45 115.26 1576.45 151.74 1594.69 115.26"/>
        <polygon class="cls-2" points="1652.89 162.96 1659.42 162.96 1659.42 149.9 1652.89 162.96"/>
        <polygon class="cls-2" points="1244.56 17.67 1244.56 0 1235.16 0 1226.33 17.67 1244.56 17.67"/>
        <polygon class="cls-2" points="1078.62 10.6 1078.62 47.07 1096.86 10.6 1078.62 10.6"/>
        <polygon class="cls-2" points="1161.59 81.7 1161.59 45.23 1143.35 81.7 1161.59 81.7"/>
        <polygon class="cls-2" points="1336.5 0 1327.54 0 1327.54 17.92 1336.5 0"/>
        <polygon class="cls-2" points="1410.51 52.56 1410.51 16.08 1392.27 52.56 1410.51 52.56"/>
        <polygon class="cls-2" points="1244.56 45.49 1244.56 81.96 1262.8 45.49 1244.56 45.49"/>
        <polygon class="cls-2" points="1327.54 116.59 1327.54 80.12 1309.3 116.59 1327.54 116.59"/>
        <polygon class="cls-2" points="1493.48 16.34 1493.48 52.81 1511.72 16.34 1493.48 16.34"/>
        <polygon class="cls-2" points="1576.45 87.44 1576.45 50.97 1558.21 87.44 1576.45 87.44"/>
        <polygon class="cls-2" points="1410.51 80.38 1410.51 116.85 1428.75 80.38 1410.51 80.38"/>
        <polygon class="cls-2" points="1493.48 151.48 1493.48 115.01 1475.24 151.48 1493.48 151.48"/>
        <polygon class="cls-2" points="995.65 74.64 995.65 111.11 1013.89 74.64 995.65 74.64"/>
        <polygon class="cls-2" points="1078.62 145.74 1078.62 109.27 1060.38 145.74 1078.62 145.74"/>
        <polygon class="cls-2" points="912.68 138.67 912.68 162.96 918.77 162.96 930.92 138.67 912.68 138.67"/>
        <polygon class="cls-2" points="829.71 39.75 829.71 76.22 847.95 39.75 829.71 39.75"/>
        <polygon class="cls-2" points="912.68 110.85 912.68 74.38 894.44 110.85 912.68 110.85"/>
        <polygon class="cls-2" points="918.77 0 912.68 0 912.68 12.18 918.77 0"/>
        <polygon class="cls-2" points="995.65 46.82 995.65 10.34 977.41 46.82 995.65 46.82"/>
        <g>
          <polygon class="cls-1" points="2157.25 150.18 2103.24 150.18 2157.25 42.19 2178.34 0 2171.95 0 2157.25 29.4 2093.99 155.89 2157.25 155.89 2175.48 155.89 2171.95 162.96 2178.34 162.96 2180.6 158.45 2184.74 150.18 2175.48 150.18 2157.25 150.18"/>
          <polygon class="cls-1" points="2018.79 115.29 2009.54 115.29 1991.3 115.29 1937.3 115.29 1991.3 7.3 1994.95 0 1991.3 0 1988.56 0 1928.05 121 1991.3 121 2009.54 121 1991.3 157.48 1988.56 162.96 1991.3 162.96 1994.95 162.96 2014.66 123.56 2018.79 115.29"/>
          <polygon class="cls-1" points="1991.3 93.19 1973.06 93.19 1991.3 56.71 2019.66 0 2013.27 0 1991.3 43.93 1967.95 90.63 1963.81 98.9 1973.06 98.9 1991.3 98.9 2045.31 98.9 2013.27 162.96 2019.66 162.96 2054.56 93.19 1991.3 93.19"/>
          <polygon class="cls-1" points="1931.69 24.64 1935.82 16.36 1926.57 16.36 1908.33 16.36 1854.33 16.36 1862.51 0 1856.12 0 1845.08 22.08 1908.33 22.08 1926.57 22.08 1908.33 58.55 1856.12 162.96 1862.51 162.96 1908.33 71.34 1931.69 24.64"/>
          <polygon class="cls-1" points="2097.63 59.53 2101.77 51.25 2092.51 51.25 2074.27 51.25 2020.27 51.25 2045.9 0 2039.51 0 2011.02 56.97 2074.27 56.97 2092.51 56.97 2074.27 93.44 2039.51 162.96 2045.9 162.96 2074.27 106.22 2097.63 59.53"/>
          <polygon class="cls-1" points="2074.27 29.15 2056.04 29.15 2070.61 0 2064.22 0 2050.92 26.59 2046.78 34.87 2056.04 34.87 2074.27 34.87 2128.28 34.87 2074.27 142.85 2064.22 162.96 2070.61 162.96 2074.27 155.64 2137.53 29.15 2074.27 29.15"/>
          <polygon class="cls-1" points="2139.01 128.07 2157.25 91.6 2203.05 0 2196.66 0 2157.25 78.82 2133.89 125.52 2129.75 133.79 2139.01 133.79 2157.25 133.79 2211.25 133.79 2196.66 162.96 2203.05 162.96 2220.5 128.07 2157.25 128.07 2139.01 128.07"/>
          <polygon class="cls-1" points="2280.24 0 2273.84 0 2259.93 27.82 2323.19 27.82 2323.19 22.1 2269.18 22.1 2280.24 0"/>
          <polygon class="cls-1" points="2304.95 0 2298.56 0 2295.7 5.72 2304.95 5.72 2323.19 5.72 2323.19 0 2304.95 0"/>
          <polygon class="cls-1" points="2267.71 86.14 2258.46 86.14 2240.22 86.14 2186.21 86.14 2229.29 0 2222.9 0 2176.96 91.86 2240.22 91.86 2258.46 91.86 2240.22 128.33 2222.9 162.96 2229.29 162.96 2240.22 141.11 2263.57 94.41 2267.71 86.14"/>
          <polygon class="cls-1" points="2240.22 64.04 2221.98 64.04 2240.22 27.56 2254 0 2247.61 0 2240.22 14.78 2216.86 61.48 2212.72 69.75 2221.98 69.75 2240.22 69.75 2294.22 69.75 2247.61 162.96 2254 162.96 2303.47 64.04 2240.22 64.04"/>
          <polygon class="cls-1" points="2280.24 162.96 2323.19 77.08 2323.19 64.29 2273.84 162.96 2280.24 162.96"/>
          <polygon class="cls-1" points="2298.56 162.96 2304.95 162.96 2323.19 126.49 2323.19 113.71 2299.83 160.41 2298.56 162.96"/>
          <polygon class="cls-1" points="1852.85 80.4 1843.6 80.4 1825.36 80.4 1771.36 80.4 1811.56 0 1805.17 0 1762.11 86.12 1825.36 86.12 1843.6 86.12 1825.36 122.59 1805.17 162.96 1811.56 162.96 1825.36 135.37 1848.71 88.67 1852.85 80.4"/>
          <polygon class="cls-1" points="1825.36 58.3 1807.12 58.3 1825.36 21.82 1836.28 0 1829.88 0 1825.36 9.04 1802.01 55.74 1797.87 64.01 1807.12 64.01 1825.36 64.01 1879.37 64.01 1829.88 162.96 1836.28 162.96 1888.62 58.3 1825.36 58.3"/>
          <polygon class="cls-1" points="1890.09 157.22 1908.33 120.75 1968.72 0 1962.32 0 1908.33 107.97 1884.98 154.66 1880.84 162.94 1890.09 162.94 1908.33 162.94 1962.34 162.94 1962.32 162.96 1968.72 162.96 1971.59 157.22 1908.33 157.22 1890.09 157.22"/>
          <polygon class="cls-1" points="1742.39 144.44 1688.39 144.44 1742.39 36.45 1760.62 0 1754.22 0 1742.39 23.66 1679.13 150.15 1742.39 150.15 1760.63 150.15 1754.22 162.96 1760.62 162.96 1765.74 152.71 1769.88 144.44 1760.63 144.44 1742.39 144.44"/>
          <polygon class="cls-1" points="1742.39 122.33 1724.15 122.33 1742.39 85.86 1785.33 0 1778.94 0 1742.39 73.08 1719.04 119.78 1714.9 128.05 1724.15 128.05 1742.39 128.05 1796.39 128.05 1778.94 162.96 1785.33 162.96 1805.65 122.33 1742.39 122.33"/>
          <polygon class="cls-1" points="1682.77 53.78 1686.91 45.51 1677.66 45.51 1659.42 45.51 1605.42 45.51 1628.17 0 1621.78 0 1596.16 51.23 1659.42 51.23 1677.66 51.23 1659.42 87.7 1621.78 162.96 1628.17 162.96 1659.42 100.48 1682.77 53.78"/>
          <polygon class="cls-1" points="1659.42 23.41 1641.18 23.41 1652.89 0 1646.49 0 1636.07 20.85 1631.93 29.13 1641.18 29.13 1659.42 29.13 1713.42 29.13 1659.42 137.11 1646.49 162.96 1652.89 162.96 1659.42 149.9 1722.68 23.41 1659.42 23.41"/>
          <polygon class="cls-1" points="604.15 71.45 608.29 63.18 599.04 63.18 580.8 63.18 526.79 63.18 558.39 0 551.99 0 517.54 68.89 580.8 68.89 599.04 68.89 580.8 105.37 551.99 162.96 558.39 162.96 580.8 118.15 604.15 71.45"/>
          <polygon class="cls-1" points="580.8 41.08 562.56 41.08 580.8 4.6 583.1 0 580.8 0 576.71 0 557.44 38.52 553.31 46.79 562.56 46.79 580.8 46.79 634.8 46.79 580.8 154.78 576.71 162.96 580.8 162.96 583.1 162.96 644.05 41.08 580.8 41.08"/>
          <polygon class="cls-1" points="645.53 140 663.77 103.53 715.54 0 709.15 0 663.77 90.74 640.41 137.44 636.28 145.72 645.53 145.72 663.77 145.72 717.77 145.72 709.15 162.96 715.54 162.96 727.02 140 663.77 140 645.53 140"/>
          <polygon class="cls-1" points="497.83 127.21 443.82 127.21 497.83 19.23 507.44 0 501.05 0 497.83 6.44 434.57 132.93 497.83 132.93 516.06 132.93 501.05 162.96 507.44 162.96 521.18 135.49 525.32 127.21 516.06 127.21 497.83 127.21"/>
          <polygon class="cls-1" points="497.83 105.11 479.59 105.11 497.83 68.64 532.15 0 525.76 0 497.83 55.86 474.47 102.55 470.33 110.83 479.59 110.83 497.83 110.83 551.83 110.83 525.76 162.96 532.15 162.96 561.08 105.11 497.83 105.11"/>
          <polygon class="cls-1" points="438.21 36.56 442.35 28.29 433.09 28.29 414.85 28.29 360.85 28.29 375 0 368.6 0 351.6 34.01 414.85 34.01 433.09 34.01 414.85 70.48 368.6 162.96 375 162.96 414.85 83.26 438.21 36.56"/>
          <polygon class="cls-1" points="414.85 6.19 396.62 6.19 399.71 0 393.32 0 391.5 3.63 387.36 11.9 396.62 11.9 414.85 11.9 468.86 11.9 414.85 119.89 393.32 162.96 399.71 162.96 414.85 132.68 478.11 6.19 414.85 6.19"/>
          <polygon class="cls-1" points="359.38 92.33 350.12 92.33 331.88 92.33 277.88 92.33 324.05 0 317.66 0 268.63 98.04 331.88 98.04 350.12 98.04 331.88 134.52 317.66 162.96 324.05 162.96 331.88 147.3 355.24 100.6 359.38 92.33"/>
          <polygon class="cls-1" points="331.88 70.22 313.64 70.22 331.88 33.75 348.76 0 342.37 0 331.88 20.97 308.53 67.67 304.39 75.94 313.64 75.94 331.88 75.94 385.89 75.94 342.37 162.96 348.76 162.96 395.14 70.22 331.88 70.22"/>
          <polygon class="cls-1" points="189.29 65.71 193.43 57.44 184.18 57.44 165.94 57.44 111.94 57.44 140.66 0 134.27 0 102.69 63.15 165.94 63.15 184.18 63.15 165.94 99.63 134.27 162.96 140.66 162.96 165.94 112.41 189.29 65.71"/>
          <polygon class="cls-1" points="165.94 35.33 147.7 35.33 165.37 0 158.98 0 142.59 32.78 138.45 41.05 147.7 41.05 165.94 41.05 219.95 41.05 165.94 149.04 158.98 162.96 165.37 162.96 165.94 161.83 229.2 35.33 165.94 35.33"/>
          <polygon class="cls-1" points="230.67 134.26 248.91 97.79 297.82 0 291.42 0 248.91 85 225.56 131.7 221.42 139.98 230.67 139.98 248.91 139.98 302.92 139.98 291.42 162.96 297.82 162.96 312.17 134.26 248.91 134.26 230.67 134.26"/>
          <polygon class="cls-1" points="774.23 98.07 764.98 98.07 746.74 98.07 692.74 98.07 741.78 0 735.38 0 683.48 103.78 746.74 103.78 764.98 103.78 746.74 140.26 735.38 162.96 741.78 162.96 746.74 153.04 770.09 106.34 774.23 98.07"/>
          <polygon class="cls-1" points="746.74 75.96 728.5 75.96 746.74 39.49 766.49 0 760.09 0 746.74 26.71 723.39 73.41 719.25 81.68 728.5 81.68 746.74 81.68 800.74 81.68 760.09 162.96 766.49 162.96 809.99 75.96 746.74 75.96"/>
          <polygon class="cls-1" points="663.77 162.1 609.76 162.1 663.77 54.11 687.12 7.42 690.83 0 663.77 0 602.94 0 600.51 4.86 663.77 4.86 682.01 4.86 663.77 41.33 602.94 162.96 663.77 162.96 690.83 162.96 691.26 162.1 682.01 162.1 663.77 162.1"/>
          <polygon class="cls-1" points="248.91 156.36 194.91 156.36 248.91 48.37 272.27 1.67 273.1 0 266.71 0 248.91 35.59 185.66 162.08 248.91 162.08 267.15 162.08 266.71 162.96 273.1 162.96 276.4 156.36 267.15 156.36 248.91 156.36"/>
          <polygon class="cls-1" points="27.49 22.55 18.24 22.55 0 22.55 0 28.27 18.24 28.27 0 64.74 0 77.52 23.35 30.82 27.49 22.55"/>
          <polygon class="cls-1" points="0 .45 0 6.16 54 6.16 0 114.15 0 126.94 63.26 .45 0 .45"/>
          <polygon class="cls-1" points="101.21 121.47 82.97 121.47 28.97 121.47 82.97 13.48 89.71 0 83.32 0 82.97 .7 19.71 127.19 82.97 127.19 101.21 127.19 83.32 162.96 89.71 162.96 106.32 129.75 110.46 121.47 101.21 121.47"/>
          <polygon class="cls-1" points="82.97 99.37 64.73 99.37 82.97 62.9 114.43 0 108.03 0 82.97 50.12 59.62 96.81 55.48 105.09 64.73 105.09 82.97 105.09 136.97 105.09 108.03 162.96 114.43 162.96 146.23 99.37 82.97 99.37"/>
          <polygon class="cls-1" points="1327.54 138.69 1273.53 138.69 1327.54 30.71 1342.89 0 1336.5 0 1327.54 17.92 1264.28 144.41 1327.54 144.41 1345.77 144.41 1336.5 162.96 1342.89 162.96 1350.89 146.97 1355.03 138.69 1345.77 138.69 1327.54 138.69"/>
          <polygon class="cls-1" points="1327.54 116.59 1309.3 116.59 1327.54 80.12 1367.6 0 1361.21 0 1327.54 67.34 1304.18 114.04 1300.04 122.31 1309.3 122.31 1327.54 122.31 1381.54 122.31 1361.21 162.96 1367.6 162.96 1390.79 116.59 1327.54 116.59"/>
          <polygon class="cls-1" points="1189.09 103.81 1179.83 103.81 1161.59 103.81 1107.59 103.81 1159.5 0 1153.11 0 1098.34 109.52 1161.59 109.52 1179.83 109.52 1161.59 146 1153.11 162.96 1159.5 162.96 1161.59 158.78 1184.95 112.08 1189.09 103.81"/>
          <polygon class="cls-1" points="1161.59 81.7 1143.35 81.7 1161.59 45.23 1184.21 0 1177.82 0 1161.59 32.45 1138.24 79.15 1134.1 87.42 1143.35 87.42 1161.59 87.42 1215.6 87.42 1177.82 162.96 1184.21 162.96 1224.85 81.7 1161.59 81.7"/>
          <polygon class="cls-1" points="1603.94 109.55 1594.69 109.55 1576.45 109.55 1522.45 109.55 1576.45 1.56 1577.23 0 1576.45 0 1570.83 0 1513.19 115.26 1576.45 115.26 1594.69 115.26 1576.45 151.74 1570.83 162.96 1576.45 162.96 1577.23 162.96 1599.8 117.82 1603.94 109.55"/>
          <polygon class="cls-1" points="1576.45 87.44 1558.21 87.44 1576.45 50.97 1601.94 0 1595.55 0 1576.45 38.19 1553.1 84.89 1548.96 93.16 1558.21 93.16 1576.45 93.16 1630.45 93.16 1595.55 162.96 1601.94 162.96 1639.7 87.44 1576.45 87.44"/>
          <polygon class="cls-1" points="1101.98 13.16 1106.11 4.88 1096.86 4.88 1078.62 4.88 1024.62 4.88 1027.06 0 1020.67 0 1015.37 10.6 1078.62 10.6 1096.86 10.6 1078.62 47.07 1020.67 162.96 1027.06 162.96 1078.62 59.85 1101.98 13.16"/>
          <polygon class="cls-1" points="1267.92 48.04 1272.06 39.77 1262.8 39.77 1244.56 39.77 1190.56 39.77 1210.45 0 1204.06 0 1181.31 45.49 1244.56 45.49 1262.8 45.49 1244.56 81.96 1204.06 162.96 1210.45 162.96 1244.56 94.74 1267.92 48.04"/>
          <polygon class="cls-1" points="1244.56 17.67 1226.33 17.67 1235.16 0 1228.77 0 1221.21 15.11 1217.07 23.39 1226.33 23.39 1244.56 23.39 1298.57 23.39 1244.56 131.37 1228.77 162.96 1235.16 162.96 1244.56 144.16 1307.82 17.67 1244.56 17.67"/>
          <polygon class="cls-1" points="1516.83 18.9 1520.97 10.62 1511.72 10.62 1493.48 10.62 1439.47 10.62 1444.79 0 1438.39 0 1430.22 16.34 1493.48 16.34 1511.72 16.34 1493.48 52.81 1438.39 162.96 1444.79 162.96 1493.48 65.59 1516.83 18.9"/>
          <polygon class="cls-1" points="1438 74.66 1428.75 74.66 1410.51 74.66 1356.5 74.66 1393.84 0 1387.45 0 1347.25 80.38 1410.51 80.38 1428.75 80.38 1410.51 116.85 1387.45 162.96 1393.84 162.96 1410.51 129.63 1433.86 82.93 1438 74.66"/>
          <polygon class="cls-1" points="1410.51 52.56 1392.27 52.56 1410.51 16.08 1418.55 0 1412.16 0 1410.51 3.3 1387.15 50 1383.02 58.27 1392.27 58.27 1410.51 58.27 1464.51 58.27 1412.16 162.96 1418.55 162.96 1473.76 52.56 1410.51 52.56"/>
          <polygon class="cls-1" points="1475.24 151.48 1493.48 115.01 1550.99 0 1544.6 0 1493.48 102.23 1470.12 148.92 1465.99 157.2 1475.24 157.2 1493.48 157.2 1547.48 157.2 1544.6 162.96 1550.99 162.96 1556.73 151.48 1493.48 151.48 1475.24 151.48"/>
          <polygon class="cls-1" points="1019 77.19 1023.14 68.92 1013.89 68.92 995.65 68.92 941.65 68.92 976.11 0 969.72 0 932.4 74.64 995.65 74.64 1013.89 74.64 995.65 111.11 969.72 162.96 976.11 162.96 995.65 123.89 1019 77.19"/>
          <polygon class="cls-1" points="995.65 46.82 977.41 46.82 995.65 10.34 1000.82 0 995.65 0 994.43 0 972.3 44.26 968.16 52.53 977.41 52.53 995.65 52.53 1049.66 52.53 995.65 160.52 994.43 162.96 995.65 162.96 1000.82 162.96 1058.91 46.82 995.65 46.82"/>
          <polygon class="cls-1" points="1060.38 145.74 1078.62 109.27 1133.27 0 1126.87 0 1078.62 96.49 1055.27 143.18 1051.13 151.46 1060.38 151.46 1078.62 151.46 1132.63 151.46 1126.87 162.96 1133.27 162.96 1141.88 145.74 1078.62 145.74 1060.38 145.74"/>
          <polygon class="cls-1" points="912.68 132.95 858.68 132.95 912.68 24.97 925.17 0 918.77 0 912.68 12.18 849.42 138.67 912.68 138.67 930.92 138.67 918.77 162.96 925.17 162.96 936.03 141.23 940.17 132.95 930.92 132.95 912.68 132.95"/>
          <polygon class="cls-1" points="912.68 110.85 894.44 110.85 912.68 74.38 949.88 0 943.48 0 912.68 61.6 889.33 108.3 885.19 116.57 894.44 116.57 912.68 116.57 966.68 116.57 943.48 162.96 949.88 162.96 975.94 110.85 912.68 110.85"/>
          <polygon class="cls-1" points="853.06 42.3 857.2 34.03 847.95 34.03 829.71 34.03 775.71 34.03 792.72 0 786.33 0 766.45 39.75 829.71 39.75 847.95 39.75 829.71 76.22 786.33 162.96 792.72 162.96 829.71 89 853.06 42.3"/>
          <polygon class="cls-1" points="829.71 11.93 811.47 11.93 817.44 0 811.04 0 806.36 9.37 802.22 17.64 811.47 17.64 829.71 17.64 883.71 17.64 829.71 125.63 811.04 162.96 817.44 162.96 829.71 138.42 892.97 11.93 829.71 11.93"/>
        </g>
      </g>
    </symbol>
  </defs>
  <g id="Capa_1-2" data-name="Capa 1">
    <use width="2323.19" height="162.96" xlink:href="#Fondo_SieteV"/>
  </g>
</svg>