<?xml version="1.0" encoding="UTF-8"?>
<svg id="Capa_2" data-name="Capa 2" xmlns="http://www.w3.org/2000/svg" xmlns:xlink="http://www.w3.org/1999/xlink" viewBox="0 0 2704.29 189.18">
  <defs>
    <style>
      .cls-1 {
        fill: #3d3dfc;
      }

      .cls-2 {
        fill: #a2d600;
      }
    </style>
    <symbol id="fondo-sietev" viewBox="0 0 2704.29 189.18">
      <g>
        <g>
          <polygon class="cls-1" points="386.33 106.95 323.46 106.95 376.95 0 369.51 0 312.69 113.61 386.33 113.61 407.56 113.61 386.33 156.06 369.77 189.18 377.21 189.18 386.33 170.94 413.51 116.58 418.33 106.95 407.56 106.95 386.33 106.95"/>
          <polygon class="cls-1" points="289.75 181.49 226.88 181.49 289.75 55.79 316.93 1.43 317.64 0 310.2 0 289.75 40.91 216.11 188.15 289.75 188.15 310.98 188.15 310.46 189.18 317.9 189.18 321.75 181.49 310.98 181.49 289.75 181.49"/>
          <polygon class="cls-1" points="225.16 66.34 214.39 66.34 193.16 66.34 130.3 66.34 163.48 0 156.03 0 119.53 73 193.16 73 214.39 73 193.16 115.45 156.29 189.18 163.74 189.18 193.16 130.33 220.35 75.97 225.16 66.34"/>
          <polygon class="cls-1" points="32 25.73 21.23 25.73 0 25.73 0 32.38 21.23 32.38 0 74.84 0 89.72 27.18 35.36 32 25.73"/>
          <polygon class="cls-1" points="96.58 140.88 33.72 140.88 96.58 15.18 104.17 0 96.73 0 96.58 .3 22.95 147.54 96.58 147.54 117.81 147.54 96.99 189.18 104.43 189.18 123.77 150.51 128.58 140.88 117.81 140.88 96.58 140.88"/>
          <polygon class="cls-1" points="1180.21 79.7 1158.98 79.7 1096.12 79.7 1135.98 0 1128.54 0 1085.35 86.36 1158.98 86.36 1180.21 86.36 1158.98 128.81 1128.8 189.18 1136.24 189.18 1158.98 143.7 1186.17 89.34 1190.98 79.7 1180.21 79.7"/>
          <polygon class="cls-1" points="514.91 32.41 504.14 32.41 482.91 32.41 420.05 32.41 436.25 0 428.81 0 409.28 39.07 482.91 39.07 504.14 39.07 482.91 81.52 429.07 189.18 436.51 189.18 482.91 96.4 510.09 42.04 514.91 32.41"/>
          <polygon class="cls-1" points="579.49 147.56 516.63 147.56 579.49 21.86 590.42 0 582.98 0 579.49 6.98 505.86 154.22 579.49 154.22 600.72 154.22 583.24 189.18 590.68 189.18 606.68 157.2 611.49 147.56 600.72 147.56 579.49 147.56"/>
          <polygon class="cls-1" points="1062.4 154.25 999.54 154.25 1062.4 28.54 1076.67 0 1069.23 0 1062.4 13.66 988.77 160.9 1062.4 160.9 1083.63 160.9 1069.49 189.18 1076.93 189.18 1089.58 163.88 1094.4 154.25 1083.63 154.25 1062.4 154.25"/>
          <polygon class="cls-1" points="997.82 39.09 987.05 39.09 965.82 39.09 902.96 39.09 922.51 0 915.06 0 892.19 45.75 965.82 45.75 987.05 45.75 965.82 88.2 915.32 189.18 922.76 189.18 965.82 103.08 993 48.72 997.82 39.09"/>
          <polygon class="cls-1" points="869.24 113.63 806.37 113.63 863.2 0 855.76 0 795.6 120.29 869.24 120.29 890.47 120.29 869.24 162.74 856.02 189.18 863.46 189.18 869.24 177.63 896.42 123.27 901.24 113.63 890.47 113.63 869.24 113.63"/>
          <polygon class="cls-1" points="708.07 73.02 697.3 73.02 676.07 73.02 613.21 73.02 649.73 0 642.29 0 602.44 79.68 676.07 79.68 697.3 79.68 676.07 122.13 642.55 189.18 649.99 189.18 676.07 137.01 703.26 82.65 708.07 73.02"/>
          <polygon class="cls-1" points="772.65 188.18 709.79 188.18 772.65 62.47 799.84 8.11 803.9 0 772.65 0 701.59 0 699.02 5.14 772.65 5.14 793.89 5.14 772.65 47.59 701.85 189.18 772.65 189.18 804.16 189.18 804.66 188.18 793.89 188.18 772.65 188.18"/>
          <polygon class="cls-1" points="1287.57 5.16 1276.79 5.16 1255.56 5.16 1192.7 5.16 1195.28 0 1187.84 0 1181.93 11.82 1255.56 11.82 1276.79 11.82 1255.56 54.27 1188.1 189.18 1195.54 189.18 1255.56 69.15 1282.75 14.79 1287.57 5.16"/>
          <polygon class="cls-1" points="1641.89 86.39 1579.03 86.39 1622.23 0 1614.79 0 1568.26 93.04 1641.89 93.04 1663.12 93.04 1641.89 135.5 1615.05 189.18 1622.49 189.18 1641.89 150.38 1669.08 96.02 1673.89 86.39 1663.12 86.39 1641.89 86.39"/>
          <polygon class="cls-1" points="1480.73 45.77 1469.96 45.77 1448.73 45.77 1385.87 45.77 1408.76 0 1401.31 0 1375.09 52.43 1448.73 52.43 1469.96 52.43 1448.73 94.88 1401.57 189.18 1409.02 189.18 1448.73 109.77 1475.91 55.41 1480.73 45.77"/>
          <polygon class="cls-1" points="1545.31 160.93 1482.45 160.93 1545.31 35.22 1562.92 0 1555.48 0 1545.31 20.34 1471.68 167.58 1545.31 167.58 1566.54 167.58 1555.74 189.18 1563.18 189.18 1572.49 170.56 1577.31 160.93 1566.54 160.93 1545.31 160.93"/>
          <polygon class="cls-1" points="1352.15 120.32 1289.28 120.32 1349.45 0 1342.01 0 1278.51 126.97 1352.15 126.97 1373.38 126.97 1352.15 169.43 1342.27 189.18 1349.71 189.18 1352.15 184.31 1379.33 129.95 1384.15 120.32 1373.38 120.32 1352.15 120.32"/>
          <polygon class="cls-1" points="2511.13 174.29 2448.27 174.29 2511.13 48.59 2535.43 0 2527.98 0 2511.13 33.71 2437.49 180.95 2511.13 180.95 2532.36 180.95 2528.24 189.18 2535.69 189.18 2538.31 183.92 2543.13 174.29 2532.36 174.29 2511.13 174.29"/>
          <polygon class="cls-1" points="2446.55 59.14 2435.78 59.14 2414.55 59.14 2351.68 59.14 2381.26 0 2373.82 0 2340.91 65.79 2414.55 65.79 2435.78 65.79 2414.55 108.25 2374.08 189.18 2381.52 189.18 2414.55 123.13 2441.73 68.77 2446.55 59.14"/>
          <polygon class="cls-1" points="1835.05 127 1772.19 127 1835.05 1.29 1835.7 0 1835.05 0 1828.26 0 1761.42 133.65 1835.05 133.65 1856.29 133.65 1835.05 176.11 1828.52 189.18 1835.05 189.18 1835.96 189.18 1862.24 136.63 1867.06 127 1856.29 127 1835.05 127"/>
          <polygon class="cls-1" points="1770.47 11.84 1759.7 11.84 1738.47 11.84 1675.61 11.84 1681.53 0 1674.09 0 1664.84 18.5 1738.47 18.5 1759.7 18.5 1738.47 60.95 1674.35 189.18 1681.79 189.18 1738.47 75.84 1765.66 21.48 1770.47 11.84"/>
          <polygon class="cls-1" points="2253.38 18.53 2242.61 18.53 2221.38 18.53 2158.52 18.53 2167.78 0 2160.34 0 2147.75 25.18 2221.38 25.18 2242.61 25.18 2221.38 67.64 2160.6 189.18 2168.04 189.18 2221.38 82.52 2248.57 28.16 2253.38 18.53"/>
          <polygon class="cls-1" points="2317.96 133.68 2255.1 133.68 2317.96 7.98 2321.95 0 2317.96 0 2314.51 0 2244.33 140.34 2317.96 140.34 2339.2 140.34 2317.96 182.79 2314.77 189.18 2317.96 189.18 2322.21 189.18 2345.15 143.31 2349.97 133.68 2339.2 133.68 2317.96 133.68"/>
          <polygon class="cls-1" points="2124.8 93.07 2061.94 93.07 2108.48 0 2101.04 0 2051.17 99.72 2124.8 99.72 2146.03 99.72 2124.8 142.18 2101.3 189.18 2108.74 189.18 2124.8 157.06 2151.98 102.7 2156.8 93.07 2146.03 93.07 2124.8 93.07"/>
          <polygon class="cls-1" points="1963.64 52.46 1952.87 52.46 1931.64 52.46 1868.77 52.46 1895.01 0 1887.56 0 1858 59.11 1931.64 59.11 1952.87 59.11 1931.64 101.57 1887.82 189.18 1895.27 189.18 1931.64 116.45 1958.82 62.09 1963.64 52.46"/>
          <polygon class="cls-1" points="2028.22 167.61 1965.36 167.61 2028.22 41.91 2049.17 0 2041.73 0 2028.22 27.03 1954.59 174.27 2028.22 174.27 2049.45 174.27 2041.99 189.18 2049.43 189.18 2055.4 177.24 2060.22 167.61 2049.45 167.61 2028.22 167.61"/>
          <polygon class="cls-1" points="2641.43 25.21 2654.04 0 2646.59 0 2630.66 31.86 2704.29 31.86 2704.29 25.21 2641.43 25.21"/>
          <polygon class="cls-1" points="2607.71 99.75 2544.85 99.75 2594.73 0 2587.29 0 2534.08 106.41 2607.71 106.41 2628.94 106.41 2607.71 148.86 2587.55 189.18 2594.99 189.18 2607.71 163.74 2634.89 109.38 2639.71 99.75 2628.94 99.75 2607.71 99.75"/>
          <polygon class="cls-1" points="2654.29 189.18 2704.29 89.2 2704.29 74.32 2646.85 189.18 2654.29 189.18"/>
        </g>
        <g>
          <polygon class="cls-2" points="386.33 81.22 365.1 81.22 386.33 38.77 405.72 0 398.27 0 386.33 23.89 359.14 78.25 354.33 87.88 365.1 87.88 386.33 87.88 449.19 87.88 398.53 189.18 405.97 189.18 459.96 81.22 386.33 81.22"/>
          <polygon class="cls-2" points="193.16 40.61 171.93 40.61 192.24 0 184.8 0 165.98 37.64 161.16 47.27 171.93 47.27 193.16 47.27 256.03 47.27 193.16 172.97 185.06 189.18 192.5 189.18 193.16 187.85 266.8 40.61 193.16 40.61"/>
          <polygon class="cls-2" points="268.51 155.77 289.75 113.31 346.41 0 338.97 0 289.75 98.43 262.56 152.79 257.74 162.42 268.51 162.42 289.75 162.42 352.61 162.42 339.23 189.18 346.67 189.18 363.38 155.77 289.75 155.77 268.51 155.77"/>
          <polygon class="cls-2" points="0 0 0 6.66 62.86 6.66 0 132.36 0 147.24 73.63 0 0 0"/>
          <polygon class="cls-2" points="75.35 115.15 96.58 72.7 132.94 0 125.5 0 96.58 57.82 69.4 112.18 64.58 121.81 75.35 121.81 96.58 121.81 159.44 121.81 125.76 189.18 133.2 189.18 170.21 115.15 96.58 115.15 75.35 115.15"/>
          <polygon class="cls-2" points="1158.98 53.98 1137.75 53.98 1158.98 11.52 1164.74 0 1158.98 0 1157.3 0 1131.8 51 1126.98 60.63 1137.75 60.63 1158.98 60.63 1221.84 60.63 1158.98 186.34 1157.56 189.18 1158.98 189.18 1165 189.18 1232.61 53.98 1158.98 53.98"/>
          <polygon class="cls-2" points="1234.33 169.13 1255.56 126.67 1318.91 0 1311.47 0 1255.56 111.79 1228.38 166.15 1223.56 175.79 1234.33 175.79 1255.56 175.79 1318.43 175.79 1311.73 189.18 1319.17 189.18 1329.2 169.13 1255.56 169.13 1234.33 169.13"/>
          <polygon class="cls-2" points="482.91 6.68 461.68 6.68 465.02 0 457.58 0 455.73 3.71 450.91 13.34 461.68 13.34 482.91 13.34 545.77 13.34 482.91 139.04 457.84 189.18 465.28 189.18 482.91 153.92 556.54 6.68 482.91 6.68"/>
          <polygon class="cls-2" points="558.26 121.84 579.49 79.38 619.19 0 611.75 0 579.49 64.5 552.31 118.86 547.49 128.49 558.26 128.49 579.49 128.49 642.35 128.49 612.01 189.18 619.45 189.18 653.12 121.84 579.49 121.84 558.26 121.84"/>
          <polygon class="cls-2" points="965.82 13.36 944.59 13.36 951.27 0 943.83 0 938.63 10.39 933.82 20.02 944.59 20.02 965.82 20.02 1028.68 20.02 965.82 145.72 944.09 189.18 951.53 189.18 965.82 160.6 1039.45 13.36 965.82 13.36"/>
          <polygon class="cls-2" points="1041.17 128.52 1062.4 86.06 1105.44 0 1098 0 1062.4 71.18 1035.22 125.54 1030.4 135.17 1041.17 135.17 1062.4 135.17 1125.26 135.17 1098.26 189.18 1105.7 189.18 1136.03 128.52 1062.4 128.52 1041.17 128.52"/>
          <polygon class="cls-2" points="848.01 87.91 869.24 45.45 891.97 0 884.52 0 869.24 30.57 842.05 84.93 837.24 94.56 848.01 94.56 869.24 94.56 932.1 94.56 884.78 189.18 892.23 189.18 942.87 87.91 869.24 87.91 848.01 87.91"/>
          <polygon class="cls-2" points="676.07 47.29 654.84 47.29 676.07 4.84 678.49 0 676.07 0 671.05 0 648.89 44.32 644.07 53.95 654.84 53.95 676.07 53.95 738.94 53.95 676.07 179.65 671.31 189.18 676.07 189.18 678.75 189.18 749.71 47.29 676.07 47.29"/>
          <polygon class="cls-2" points="751.42 162.45 772.65 119.99 832.66 0 825.22 0 772.65 105.11 745.47 159.47 740.65 169.1 751.42 169.1 772.65 169.1 835.52 169.1 825.48 189.18 832.92 189.18 846.29 162.45 772.65 162.45 751.42 162.45"/>
          <polygon class="cls-2" points="1330.91 94.59 1352.15 52.13 1378.22 0 1370.77 0 1352.15 37.25 1324.96 91.61 1320.14 101.24 1330.91 101.24 1352.15 101.24 1415.01 101.24 1371.03 189.18 1378.48 189.18 1425.78 94.59 1352.15 94.59 1330.91 94.59"/>
          <polygon class="cls-2" points="1641.89 60.66 1620.66 60.66 1641.89 18.2 1650.99 0 1643.55 0 1641.89 3.32 1614.71 57.68 1609.89 67.31 1620.66 67.31 1641.89 67.31 1704.75 67.31 1643.81 189.18 1651.25 189.18 1715.52 60.66 1641.89 60.66"/>
          <polygon class="cls-2" points="1717.24 175.81 1738.47 133.36 1805.16 0 1797.72 0 1738.47 118.48 1711.29 172.84 1706.47 182.47 1717.24 182.47 1738.47 182.47 1801.34 182.47 1797.98 189.18 1805.42 189.18 1812.11 175.81 1738.47 175.81 1717.24 175.81"/>
          <polygon class="cls-2" points="1448.73 20.05 1427.5 20.05 1437.52 0 1430.08 0 1421.54 17.07 1416.73 26.7 1427.5 26.7 1448.73 26.7 1511.59 26.7 1448.73 152.41 1430.34 189.18 1437.78 189.18 1448.73 167.29 1522.36 20.05 1448.73 20.05"/>
          <polygon class="cls-2" points="1524.08 135.2 1545.31 92.74 1591.69 0 1584.25 0 1545.31 77.86 1518.13 132.22 1513.31 141.86 1524.08 141.86 1545.31 141.86 1608.17 141.86 1584.51 189.18 1591.95 189.18 1618.94 135.2 1545.31 135.2 1524.08 135.2"/>
          <polygon class="cls-2" points="2414.55 33.41 2393.31 33.41 2410.02 0 2402.58 0 2387.36 30.43 2382.54 40.07 2393.31 40.07 2414.55 40.07 2477.41 40.07 2414.55 165.77 2402.84 189.18 2410.28 189.18 2414.55 180.65 2488.18 33.41 2414.55 33.41"/>
          <polygon class="cls-2" points="2489.9 148.56 2511.13 106.11 2564.19 0 2556.75 0 2511.13 91.23 2483.94 145.59 2479.13 155.22 2489.9 155.22 2511.13 155.22 2573.99 155.22 2557.01 189.18 2564.45 189.18 2584.76 148.56 2511.13 148.56 2489.9 148.56"/>
          <polygon class="cls-2" points="1813.82 101.27 1835.05 58.82 1864.47 0 1857.03 0 1835.05 43.93 1807.87 98.29 1803.05 107.93 1813.82 107.93 1835.05 107.93 1897.92 107.93 1857.29 189.18 1864.73 189.18 1908.69 101.27 1835.05 101.27 1813.82 101.27"/>
          <polygon class="cls-2" points="2296.73 107.95 2317.96 65.5 2350.72 0 2343.28 0 2317.96 50.62 2290.78 104.98 2285.96 114.61 2296.73 114.61 2317.96 114.61 2380.83 114.61 2343.54 189.18 2350.98 189.18 2391.6 107.95 2317.96 107.95 2296.73 107.95"/>
          <polygon class="cls-2" points="2124.8 67.34 2103.57 67.34 2124.8 24.89 2137.25 0 2129.8 0 2124.8 10 2097.62 64.36 2092.8 74 2103.57 74 2124.8 74 2187.66 74 2130.06 189.18 2137.5 189.18 2198.43 67.34 2124.8 67.34"/>
          <polygon class="cls-2" points="2200.15 182.49 2221.38 140.04 2291.41 0 2283.97 0 2221.38 125.16 2194.2 179.52 2189.38 189.15 2200.15 189.15 2221.38 189.15 2284.24 189.15 2284.23 189.18 2291.67 189.18 2295.01 182.49 2221.38 182.49 2200.15 182.49"/>
          <polygon class="cls-2" points="1931.64 26.73 1910.41 26.73 1923.77 0 1916.33 0 1904.45 23.75 1899.64 33.38 1910.41 33.38 1931.64 33.38 1994.5 33.38 1931.64 159.09 1916.59 189.18 1924.03 189.18 1931.64 173.97 2005.27 26.73 1931.64 26.73"/>
          <polygon class="cls-2" points="2006.99 141.88 2028.22 99.43 2077.94 0 2070.5 0 2028.22 84.55 2001.03 138.91 1996.22 148.54 2006.99 148.54 2028.22 148.54 2091.08 148.54 2070.76 189.18 2078.2 189.18 2101.85 141.88 2028.22 141.88 2006.99 141.88"/>
          <polygon class="cls-2" points="2675.36 0 2672.29 6.14 2683.06 6.14 2704.29 6.14 2704.29 0 2675.36 0"/>
          <polygon class="cls-2" points="2607.71 74.02 2586.48 74.02 2607.71 31.57 2623.5 0 2616.05 0 2607.71 16.69 2580.53 71.05 2575.71 80.68 2586.48 80.68 2607.71 80.68 2670.57 80.68 2616.31 189.18 2623.76 189.18 2681.34 74.02 2607.71 74.02"/>
          <polygon class="cls-2" points="2675.62 189.18 2683.06 189.18 2704.29 146.72 2704.29 131.84 2677.11 186.2 2675.62 189.18"/>
        </g>
      </g>
    </symbol>
  </defs>
  <g id="Capa_1-2" data-name="Capa 1">
    <use width="2704.29" height="189.18" xlink:href="#fondo-sietev"/>
  </g>
</svg>