<?xml version="1.0" encoding="UTF-8"?>
<svg id="Capa_2" data-name="Capa 2" xmlns="http://www.w3.org/2000/svg" xmlns:xlink="http://www.w3.org/1999/xlink" viewBox="0 0 3558.9 130.81">
  <defs>
    <style>
    </style>
    <symbol id="Fondo_SieteV_nz" data-name="Fondo SieteV nz" viewBox="0 0 3558.9 130.81">
      <g>
        <polygon points="0 0 0 15.43 20.13 15.43 0 55.68 0 90.19 45.1 0 0 0"/>
        <polygon points="62.45 55.03 62.45 54.98 42.32 54.98 62.45 14.73 62.45 14.58 69.75 0 52.56 0 17.35 70.41 62.45 70.41 62.45 70.46 82.58 70.46 62.45 110.72 62.45 110.86 52.47 130.81 69.66 130.81 107.55 55.03 62.45 55.03"/>
        <polygon points="0 130.81 45.01 130.81 45.1 130.63 0 130.63 0 130.81"/>
        <polygon points="187.29 34.42 187.29 34.36 167.16 34.36 184.35 0 167.1 0 142.19 49.79 187.29 49.79 187.29 49.85 207.42 49.85 187.29 90.1 187.29 90.24 167.01 130.81 184.26 130.81 187.29 124.75 187.29 124.6 232.39 34.42 187.29 34.42"/>
        <polygon points="124.9 110.02 124.9 110.01 104.77 110.01 124.9 69.76 124.9 69.45 159.63 0 142.38 0 124.84 35.07 124.84 35.38 79.8 125.44 124.84 125.44 124.84 125.45 144.97 125.45 142.29 130.81 159.54 130.81 169.94 110.02 124.9 110.02"/>
        <polygon points="312.2 13.79 312.2 13.74 292.07 13.74 298.94 0 281.69 0 267.1 29.17 312.2 29.17 312.2 29.23 332.33 29.23 312.2 69.48 312.2 69.62 281.6 130.81 298.85 130.81 312.2 104.12 312.2 103.98 357.3 13.79 312.2 13.79"/>
        <polygon points="249.75 89.4 229.62 89.4 249.75 49.14 249.75 48.95 274.22 0 256.97 0 249.75 14.45 249.75 14.64 204.65 104.83 249.75 104.83 269.88 104.83 256.88 130.81 274.14 130.81 294.85 89.4 249.75 89.4"/>
        <polygon points="374.65 68.78 374.65 68.77 354.52 68.77 374.65 28.52 374.65 28.21 388.76 0 371.66 0 329.55 84.2 374.59 84.2 374.59 84.21 394.72 84.21 374.59 124.47 374.59 124.72 371.54 130.81 374.65 130.81 388.67 130.81 419.69 68.78 374.65 68.78"/>
        <polygon points="437.04 123.76 416.91 123.76 437.04 83.51 437.04 83.37 478.73 0 396.22 0 391.94 8.56 437.04 8.56 437.04 8.61 457.17 8.61 437.04 48.86 437.04 49.01 396.13 130.81 437.04 130.81 478.61 130.81 482.14 123.76 437.04 123.76 437.04 123.76"/>
        <polygon points="499.49 48.16 479.36 48.16 499.49 7.9 499.49 7.71 503.35 0 499.49 0 486.19 0 454.39 63.59 499.49 63.59 519.62 63.59 499.49 103.84 499.49 103.98 486.08 130.81 499.49 130.81 503.26 130.81 544.59 48.16 499.49 48.16"/>
        <polygon points="624.4 27.54 624.4 27.53 604.27 27.53 618.04 0 600.78 0 579.3 42.96 624.33 42.96 624.33 42.98 644.47 42.98 624.33 83.23 624.33 83.48 600.67 130.81 617.92 130.81 624.4 117.86 624.4 117.6 669.44 27.54 624.4 27.54"/>
        <polygon points="749.24 6.92 729.11 6.92 732.57 0 715.32 0 704.14 22.35 749.24 22.35 769.37 22.35 749.24 62.6 749.24 62.74 715.2 130.81 732.45 130.81 749.24 97.25 749.24 97.11 794.34 6.92 749.24 6.92"/>
        <polygon points="561.95 103.13 541.82 103.13 561.95 62.88 561.95 62.74 593.32 0 576.07 0 561.95 28.24 561.95 28.38 516.84 118.57 561.95 118.57 582.08 118.57 575.95 130.81 593.2 130.81 607.05 103.13 561.95 103.13"/>
        <polygon points="686.79 82.52 686.79 82.52 666.66 82.52 686.79 42.27 686.79 42.13 707.85 0 690.6 0 686.79 7.63 686.79 7.77 641.69 97.95 686.79 97.95 686.79 97.95 706.92 97.95 690.48 130.81 707.74 130.81 731.89 82.52 686.79 82.52"/>
        <polygon points="811.69 61.9 791.56 61.9 811.69 21.64 811.69 21.5 822.44 0 805.26 0 766.59 77.33 811.69 77.33 831.82 77.33 811.69 117.58 811.69 117.72 805.15 130.81 822.33 130.81 856.79 61.9 811.69 61.9"/>
        <polygon points="936.53 41.28 936.53 41.28 916.4 41.28 936.53 1.03 936.53 .89 936.98 0 919.8 0 891.43 56.71 936.53 56.71 936.53 56.71 956.66 56.71 936.53 96.97 936.53 97.11 919.68 130.81 936.86 130.81 981.63 41.28 936.53 41.28"/>
        <polygon points="874.14 116.87 854.01 116.87 874.14 76.62 874.14 76.37 912.33 0 829.91 0 829.04 1.73 874.08 1.73 874.08 1.74 894.21 1.74 874.08 41.99 874.08 42.25 829.79 130.81 912.22 130.81 919.18 116.88 874.14 116.88 874.14 116.87"/>
        <polygon points="1061.44 20.71 1061.44 20.66 1041.31 20.66 1051.64 0 1034.39 0 1016.34 36.09 1061.44 36.09 1061.44 36.15 1081.57 36.15 1061.44 76.4 1061.44 76.54 1034.3 130.81 1051.55 130.81 1061.44 111.04 1061.44 110.9 1106.54 20.71 1061.44 20.71"/>
        <polygon points="998.99 96.32 998.99 96.26 978.86 96.26 998.99 56.01 998.99 55.87 1026.92 0 1009.67 0 998.99 21.37 998.99 21.51 953.89 111.69 998.99 111.69 998.99 111.75 1019.12 111.75 1009.58 130.81 1026.84 130.81 1044.09 96.32 998.99 96.32"/>
        <polygon points="1123.89 75.7 1123.89 75.69 1103.76 75.69 1123.89 35.44 1123.89 35.13 1141.46 0 1124.2 0 1123.83 .75 1123.83 1.06 1078.79 91.12 1123.83 91.12 1123.83 91.13 1143.96 91.13 1124.11 130.81 1141.37 130.81 1168.93 75.7 1123.89 75.7"/>
        <polygon points="1248.73 55.08 1228.6 55.08 1248.73 14.82 1248.73 14.63 1256.05 0 1248.73 0 1238.89 0 1203.63 70.51 1248.73 70.51 1268.86 70.51 1248.73 110.76 1248.73 110.9 1238.78 130.81 1248.73 130.81 1255.96 130.81 1293.83 55.08 1248.73 55.08"/>
        <polygon points="1373.64 34.46 1373.64 34.45 1353.51 34.45 1370.74 0 1353.48 0 1328.54 49.88 1373.57 49.88 1373.57 49.89 1393.7 49.89 1373.57 90.15 1373.57 90.4 1353.37 130.81 1370.62 130.81 1373.64 124.78 1373.64 124.52 1418.67 34.46 1373.64 34.46"/>
        <polygon points="1186.28 130.68 1166.15 130.68 1186.28 90.43 1186.28 90.28 1231.38 .1 1186.28 .1 1186.28 .04 1166.15 .04 1166.17 0 1148.92 0 1141.18 15.48 1186.28 15.48 1186.28 15.53 1206.41 15.53 1186.28 55.78 1186.28 55.93 1148.83 130.81 1186.28 130.81 1231.31 130.81 1231.38 130.68 1186.28 130.68 1186.28 130.68"/>
        <polygon points="1311.18 110.05 1291.05 110.05 1311.18 69.8 1311.18 69.66 1346.02 0 1328.77 0 1311.18 35.16 1311.18 35.3 1266.08 125.49 1311.18 125.49 1331.31 125.49 1328.65 130.81 1345.9 130.81 1356.29 110.05 1311.18 110.05"/>
        <polygon points="1436.03 89.44 1436.03 89.44 1415.9 89.44 1436.03 49.19 1436.03 49.05 1460.55 0 1443.3 0 1436.03 14.55 1436.03 14.69 1390.93 104.87 1436.03 104.87 1436.03 104.87 1456.16 104.87 1443.18 130.81 1460.44 130.81 1481.13 89.44 1436.03 89.44"/>
        <polygon points="1498.48 13.84 1478.35 13.84 1485.27 0 1468.02 0 1453.38 29.27 1498.48 29.27 1518.61 29.27 1498.48 69.52 1498.48 69.66 1467.9 130.81 1485.15 130.81 1498.48 104.16 1498.48 104.02 1543.58 13.84 1498.48 13.84"/>
        <polygon points="1560.93 68.82 1540.8 68.82 1560.93 28.56 1560.93 28.42 1575.14 0 1557.96 0 1515.83 84.25 1560.93 84.25 1581.06 84.25 1560.93 124.5 1560.93 124.64 1557.85 130.81 1575.03 130.81 1606.03 68.82 1560.93 68.82"/>
        <polygon points="1685.77 48.2 1685.77 48.2 1665.64 48.2 1685.77 7.95 1685.77 7.81 1689.68 0 1672.49 0 1640.67 63.63 1685.77 63.63 1685.77 63.63 1705.9 63.63 1685.77 103.89 1685.77 104.03 1672.38 130.81 1689.56 130.81 1730.87 48.2 1685.77 48.2"/>
        <polygon points="1623.38 123.79 1603.25 123.79 1623.38 83.54 1623.38 83.28 1665.03 0 1582.61 0 1578.28 8.65 1623.32 8.65 1623.32 8.66 1643.45 8.66 1623.32 48.91 1623.32 49.17 1582.49 130.81 1664.92 130.81 1668.42 123.8 1623.38 123.8 1623.38 123.79"/>
        <polygon points="1748.23 103.18 1728.09 103.18 1748.23 62.93 1748.23 62.79 1779.62 0 1762.37 0 1748.23 28.29 1748.23 28.43 1703.12 118.61 1748.23 118.61 1768.36 118.61 1762.25 130.81 1779.51 130.81 1793.33 103.18 1748.23 103.18"/>
        <polygon points="1810.68 27.58 1790.55 27.58 1804.34 0 1787.09 0 1765.58 43.01 1810.68 43.01 1830.81 43.01 1810.68 83.26 1810.68 83.4 1786.97 130.81 1804.22 130.81 1810.68 117.9 1810.68 117.76 1855.78 27.58 1810.68 27.58"/>
        <polygon points="1935.52 6.96 1935.52 6.96 1915.39 6.96 1918.87 0 1901.62 0 1890.42 22.4 1935.52 22.4 1935.52 22.4 1955.65 22.4 1935.52 62.65 1935.52 62.79 1901.5 130.81 1918.76 130.81 1935.52 97.29 1935.52 97.15 1980.62 6.96 1935.52 6.96"/>
        <polygon points="1873.13 82.57 1873.13 82.55 1853 82.55 1873.13 42.3 1873.13 42.05 1894.16 0 1876.9 0 1873.07 7.67 1873.07 7.93 1828.03 97.99 1873.07 97.99 1873.07 98 1893.2 98 1876.79 130.81 1894.04 130.81 1918.17 82.57 1873.13 82.57"/>
        <polygon points="2040.29 116.97 2060.42 76.72 2060.42 76.58 2098.72 0 2016.21 0 2015.32 1.77 2060.42 1.77 2060.42 1.83 2080.55 1.83 2060.42 42.08 2060.42 42.22 2016.12 130.81 2060.42 130.81 2098.6 130.81 2105.52 116.97 2060.42 116.97 2040.29 116.97"/>
        <polygon points="1997.97 62 1997.97 61.94 1977.84 61.94 1997.97 21.69 1997.97 21.55 2008.75 0 1997.97 0 1991.56 0 1952.87 77.37 1997.97 77.37 1997.97 77.43 2018.1 77.43 1997.97 117.68 1997.97 117.82 1991.48 130.81 1997.97 130.81 2008.66 130.81 2043.07 62 1997.97 62"/>
        <polygon points="2122.88 41.38 2122.88 41.37 2102.75 41.37 2122.88 1.12 2122.88 .81 2123.28 0 2106.18 0 2077.78 56.8 2122.81 56.8 2122.81 56.81 2142.94 56.81 2122.81 97.07 2122.81 97.32 2106.07 130.81 2122.88 130.81 2123.19 130.81 2167.91 41.38 2122.88 41.38"/>
        <polygon points="2247.72 20.76 2227.59 20.76 2237.97 0 2220.72 0 2202.62 36.19 2247.72 36.19 2267.85 36.19 2247.72 76.44 2247.72 76.58 2220.6 130.81 2237.85 130.81 2247.72 111.08 2247.72 110.94 2292.82 20.76 2247.72 20.76"/>
        <polygon points="2185.27 96.36 2185.27 96.36 2165.14 96.36 2185.27 56.11 2185.27 55.97 2213.25 0 2196 0 2185.27 21.47 2185.27 21.61 2140.17 111.79 2185.27 111.79 2185.27 111.79 2205.4 111.79 2195.88 130.81 2213.14 130.81 2230.37 96.36 2185.27 96.36"/>
        <polygon points="2310.17 75.74 2290.04 75.74 2310.17 35.48 2310.17 35.34 2327.84 0 2310.59 0 2310.17 .84 2310.17 .98 2265.07 91.17 2310.17 91.17 2330.3 91.17 2310.47 130.81 2327.73 130.81 2355.27 75.74 2310.17 75.74"/>
        <polygon points="2435.01 55.12 2435.01 55.12 2414.88 55.12 2435.01 14.87 2435.01 14.73 2442.38 0 2425.19 0 2389.91 70.55 2435.01 70.55 2435.01 70.55 2455.14 70.55 2435.01 110.81 2435.01 110.95 2425.08 130.81 2442.26 130.81 2480.11 55.12 2435.01 55.12"/>
        <polygon points="2372.62 130.71 2352.49 130.71 2372.62 90.46 2372.62 90.2 2417.66 .14 2372.62 .14 2372.62 .13 2352.49 .13 2352.56 0 2335.31 0 2327.52 15.57 2372.56 15.57 2372.56 15.58 2392.69 15.58 2372.56 55.83 2372.56 56.08 2335.19 130.81 2417.62 130.81 2417.66 130.72 2372.62 130.72 2372.62 130.71"/>
        <polygon points="2497.46 110.1 2477.33 110.1 2497.46 69.85 2497.46 69.71 2532.32 0 2515.07 0 2497.46 35.21 2497.46 35.35 2452.36 125.53 2497.46 125.53 2517.59 125.53 2514.95 130.81 2532.21 130.81 2542.57 110.1 2497.46 110.1"/>
        <polygon points="2559.92 34.5 2539.79 34.5 2557.04 0 2539.79 0 2514.82 49.93 2559.92 49.93 2580.05 49.93 2559.92 90.18 2559.92 90.32 2539.67 130.81 2556.92 130.81 2559.92 124.82 2559.92 124.68 2605.02 34.5 2559.92 34.5"/>
        <polygon points="2684.76 13.88 2684.76 13.88 2664.63 13.88 2671.57 0 2654.32 0 2639.66 29.31 2684.76 29.31 2684.76 29.31 2704.89 29.31 2684.76 69.57 2684.76 69.71 2654.2 130.81 2671.46 130.81 2684.76 104.21 2684.76 104.07 2729.86 13.88 2684.76 13.88"/>
        <polygon points="2622.37 89.48 2622.37 89.47 2602.24 89.47 2622.37 49.22 2622.37 48.97 2646.86 0 2629.6 0 2622.31 14.59 2622.31 14.85 2577.27 104.91 2622.31 104.91 2622.31 104.92 2642.44 104.92 2629.49 130.81 2646.74 130.81 2667.41 89.48 2622.37 89.48"/>
        <polygon points="2747.21 68.86 2727.08 68.86 2747.21 28.61 2747.21 28.47 2761.45 0 2747.21 0 2744.26 0 2702.11 84.29 2747.21 84.29 2767.34 84.29 2747.21 124.55 2747.21 124.74 2744.18 130.81 2747.21 130.81 2761.33 130.81 2792.31 68.86 2747.21 68.86"/>
        <polygon points="2809.66 123.84 2789.53 123.84 2809.66 83.59 2809.66 83.44 2851.39 0 2809.66 0 2768.91 0 2764.56 8.69 2809.66 8.69 2829.79 8.69 2809.66 48.94 2809.66 49.08 2768.79 130.81 2851.3 130.81 2854.76 123.89 2809.66 123.89 2809.66 123.84"/>
        <polygon points="2934.51 103.28 2934.51 103.22 2914.38 103.22 2934.51 62.97 2934.51 62.83 2965.93 0 2948.67 0 2934.51 28.33 2934.51 28.47 2889.4 118.66 2934.51 118.66 2934.51 118.71 2954.64 118.71 2948.58 130.81 2965.84 130.81 2979.61 103.28 2934.51 103.28"/>
        <polygon points="2872.12 48.25 2872.12 48.24 2851.99 48.24 2872.12 7.98 2872.12 7.73 2875.98 0 2872.12 0 2858.85 0 2827.02 63.67 2872.05 63.67 2872.05 63.68 2892.18 63.68 2872.05 103.93 2872.05 104.24 2858.77 130.81 2875.86 130.81 2917.15 48.25 2872.12 48.25"/>
        <polygon points="2996.96 27.68 2996.96 27.62 2976.83 27.62 2990.64 0 2973.39 0 2951.86 43.05 2996.96 43.05 2996.96 43.11 3017.09 43.11 2996.96 83.36 2996.96 83.5 2973.3 130.81 2990.55 130.81 2996.96 118 2996.96 117.86 3042.06 27.68 2996.96 27.68"/>
        <polygon points="3121.86 7.06 3121.86 7.05 3101.73 7.05 3105.26 0 3088.01 0 3076.76 22.48 3121.8 22.48 3121.8 22.5 3141.93 22.5 3121.8 62.75 3121.8 63 3087.89 130.81 3105.14 130.81 3121.86 97.38 3121.86 97.12 3166.9 7.06 3121.86 7.06"/>
        <polygon points="3059.41 82.65 3039.28 82.65 3059.41 42.4 3059.41 42.26 3080.54 0 3063.29 0 3059.41 7.76 3059.41 7.9 3014.31 98.09 3059.41 98.09 3079.54 98.09 3063.17 130.81 3080.43 130.81 3104.51 82.65 3059.41 82.65"/>
        <polygon points="3226.57 117.02 3246.7 76.77 3246.7 76.63 3285.02 0 3246.7 0 3202.54 0 3201.6 1.87 3246.7 1.87 3266.83 1.87 3246.7 42.12 3246.7 42.26 3202.42 130.81 3246.7 130.81 3284.91 130.81 3291.8 117.02 3246.7 117.02 3226.57 117.02"/>
        <polygon points="3184.25 62.04 3184.25 62.04 3164.12 62.04 3184.25 21.79 3184.25 21.65 3195.08 0 3177.89 0 3139.15 77.47 3184.25 77.47 3184.25 77.47 3204.38 77.47 3184.25 117.73 3184.25 117.87 3177.78 130.81 3194.96 130.81 3229.35 62.04 3184.25 62.04"/>
        <polygon points="3309.16 41.42 3289.03 41.42 3309.16 1.16 3309.16 1.02 3309.67 0 3292.48 0 3264.06 56.85 3309.16 56.85 3329.29 56.85 3309.16 97.1 3309.16 97.24 3292.37 130.81 3309.55 130.81 3354.26 41.42 3309.16 41.42"/>
        <polygon points="3434 20.8 3434 20.8 3413.87 20.8 3424.27 0 3407.02 0 3388.9 36.23 3434 36.23 3434 36.23 3454.13 36.23 3434 76.49 3434 76.63 3406.9 130.81 3424.15 130.81 3434 111.13 3434 110.99 3479.1 20.8 3434 20.8"/>
        <polygon points="3371.61 96.4 3371.61 96.39 3351.48 96.39 3371.61 56.14 3371.61 55.89 3399.56 0 3382.3 0 3371.55 21.51 3371.55 21.77 3326.51 111.83 3371.55 111.83 3371.55 111.84 3391.68 111.84 3382.19 130.81 3399.44 130.81 3416.65 96.4 3371.61 96.4"/>
        <polygon points="3538.77 .18 3538.86 0 3521.61 0 3513.8 15.61 3558.9 15.61 3558.9 .18 3538.77 .18"/>
        <polygon points="3496.45 75.78 3476.32 75.78 3496.45 35.53 3496.45 35.39 3514.15 0 3496.89 0 3496.45 .89 3496.45 1.03 3451.35 91.21 3496.45 91.21 3516.58 91.21 3496.78 130.81 3514.03 130.81 3541.55 75.78 3496.45 75.78"/>
        <polygon points="3558.9 130.81 3558.9 130.76 3538.77 130.76 3558.9 90.51 3558.9 56 3521.49 130.81 3558.9 130.81"/>
      </g>
    </symbol>
  </defs>
  <g id="Capa_1-2" data-name="Capa 1">
    <use width="3558.9" height="130.81" xlink:href="#Fondo_SieteV_nz"/>
  </g>
</svg>