<?xml version="1.0" encoding="UTF-8"?>
<svg id="Capa_2" data-name="Capa 2" xmlns="http://www.w3.org/2000/svg" viewBox="0 0 239.48 415.67">
  <defs>
    <style>
      .cls-1 {
        fill: #3d3dfc;
      }

      .cls-2 {
        fill: #a2d600;
      }
    </style>
  </defs>
  <g id="Capa_1-2" data-name="Capa 1">
    <g>
      <g>
        <path class="cls-1" d="M19.26,415.67c-9.24,0-19.26-4.16-19.26-17.95h10.55c0,6.78,4.08,8.47,7.47,8.47s6.24-1.69,6.24-5.39c0-9.09-24.03-7.32-24.03-25.26,0-9.4,8.09-15.33,17.48-15.33s18.72,4.7,18.72,16.95h-10.55c0-5.85-3.62-7.55-6.93-7.55s-5.7,1.85-5.7,4.7c0,8.86,24.03,8.17,24.03,25.5,0,10.55-8.7,15.87-18.02,15.87Z"/>
        <path class="cls-1" d="M72.64,406.04v8.86h-33.89v-8.86h10.4v-18.49h-10.4v-8.86h23.49v27.34h10.4ZM55.69,373.07c-3.54,0-6.47-2.85-6.47-6.39s2.93-6.47,6.47-6.47,6.47,2.93,6.47,6.47-2.93,6.39-6.47,6.39Z"/>
        <path class="cls-1" d="M94.59,406.43c3.24,0,6.55-1,9.47-4.08l4.93,6.08c-4.54,4.47-10.4,7.24-16.95,7.24-11.48,0-19.87-8.4-19.87-18.87s8.17-18.87,19.64-18.87c10.25,0,20.03,9.17,15.95,20.95h-22.49c.62,4.54,4.78,7.55,9.32,7.55ZM98.75,391.72c-.69-3.16-3.31-4.39-5.78-4.39-1.93,0-5.01.85-6.7,4.39h12.48Z"/>
        <path class="cls-1" d="M112.77,388.63v-9.94h9.55v-13.09h13.09v13.09h12.71v9.94h-12.71v9.24c0,5.31,1.69,7.55,5.85,7.55,3.85,0,5.78-.77,7.24-1.39l1.31,9.01c-3.31,1.23-7.24,2.62-12.71,2.62-9.47,0-14.79-5.55-14.79-16.41v-10.63h-9.55Z"/>
        <path class="cls-1" d="M177.78,406.43c3.24,0,6.55-1,9.47-4.08l4.93,6.08c-4.54,4.47-10.4,7.24-16.95,7.24-11.48,0-19.87-8.4-19.87-18.87s8.17-18.87,19.64-18.87c10.25,0,20.03,9.17,15.94,20.95h-22.49c.62,4.54,4.78,7.55,9.32,7.55ZM181.94,391.72c-.69-3.16-3.31-4.39-5.78-4.39-1.92,0-5.01.85-6.7,4.39h12.48Z"/>
        <path class="cls-1" d="M219.53,415.67h-4.16l-19.95-54.69h13.56l8.47,25.34,8.47-25.34h13.56l-19.95,54.69Z"/>
      </g>
      <g>
        <polygon class="cls-1" points="10.13 202.2 71.39 79.69 82.25 57.98 57.97 57.98 10.13 57.98 10.13 72.98 57.97 72.98 10.13 168.66 10.13 202.2"/>
        <polygon class="cls-2" points="10.13 0 10.13 15 151.8 15 10.13 298.29 10.13 331.83 176.07 0 10.13 0"/>
        <polygon class="cls-1" points="227.79 332.5 227.79 317.5 86.12 317.5 227.79 34.21 227.79 .67 61.85 332.5 227.79 332.5"/>
        <polygon class="cls-2" points="227.79 130.3 166.53 252.81 155.67 274.52 179.94 274.52 227.79 274.52 227.79 259.52 179.94 259.52 227.79 163.84 227.79 130.3"/>
      </g>
    </g>
  </g>
</svg>